<svg style="background: white; border-radius: 50%;" width="68" height="69" viewBox="0 0 68 69" fill="none" xmlns="http://www.w3.org/2000/svg">
  <path
    d="M33.8391 55.238C44.9129 55.238 53.8901 46.2608 53.8901 35.187C53.8901 24.1131 44.9129 15.136 33.8391 15.136C22.7652 15.136 13.7881 24.1131 13.7881 35.187C13.7881 46.2608 22.7652 55.238 33.8391 55.238Z"
    stroke="#F2712F" stroke-width="1.527" />
  <path
    d="M22.4929 52.177C19.4869 53.69 16.5119 54.16 15.1929 53.033C11.8839 50.215 16.6539 39.203 25.8399 28.462C35.0259 17.721 45.1639 11.292 48.4729 14.11C49.8509 15.289 49.8299 17.889 48.6609 21.302"
    stroke="#F2712F" stroke-width="1.527" />
  <path
    d="M44.9829 52.177C47.9889 53.69 51.1939 54.16 52.5189 53.033C55.8279 50.215 51.0579 39.203 41.8719 28.462C32.6859 17.721 22.5559 11.292 19.2469 14.11C17.8689 15.289 17.8899 17.889 19.0589 21.302"
    stroke="#F2712F" stroke-width="1.527" />
  <path
    d="M53.4841 31.993C57.9101 33.141 59.3921 34.446 59.3921 36.366C59.3921 40.312 47.9101 43.432 33.7571 43.432C19.6041 43.432 8.1731 40.834 8.1731 36.613C8.1731 34.413 10.8241 32.928 14.1851 31.749"
    stroke="#F2712F" stroke-width="2.244" />
  <path
    d="M33.7661 67.5561C51.7949 67.5561 66.4101 52.6843 66.4101 34.3391C66.4101 15.9938 51.7949 1.12207 33.7661 1.12207C15.7373 1.12207 1.12207 15.9938 1.12207 34.3391C1.12207 52.6843 15.7373 67.5561 33.7661 67.5561Z"
    stroke="#F2712F" stroke-width="2.244" />
  <path
    d="M23.2759 48.214L33.8959 25.804L44.5269 48.214H40.4769L33.9019 34.321L27.3359 48.214H23.2759Z"
    fill="#F56E1E" />
  <path
    d="M33.8959 25.804L23.2759 48.214H27.3359L33.9009 34.321L40.4779 48.214H44.5279L33.8959 25.804Z"
    stroke="#F2712F" stroke-width="1.497" />
</svg>
  